<?xml version="1.0" encoding="utf-8"?>
<!-- Generator: Adobe Illustrator 12.0.0, SVG Export Plug-In . SVG Version: 6.00 Build 51448)  -->
<!DOCTYPE svg PUBLIC "-//W3C//DTD SVG 1.1//EN" "http://www.w3.org/Graphics/SVG/1.1/DTD/svg11.dtd" [
	<!ENTITY ns_svg "http://www.w3.org/2000/svg">
	<!ENTITY ns_xlink "http://www.w3.org/1999/xlink">
]>
<svg  version="1.1" id="Layer_1" xmlns="&ns_svg;" xmlns:xlink="&ns_xlink;" width="240.5" height="240.5"
	 viewBox="0 0 240.5 240.5" overflow="visible" enable-background="new 0 0 240.5 240.5" xml:space="preserve">
<rect fill="#F4F4F4" width="240.5" height="240.5"/>
<path fill="#BCBCBC" d="M170.641,106.599L137.037,83.07c-5.688-4.204-10.191-7.877-17.052-7.906
	c-6.86,0.028-11.367,3.446-17.053,7.649l-33.604,23.529c-2.493,1.745-3.099,5.179-1.352,7.672c1.745,2.492,5.181,3.101,7.674,1.352
	l33.206-23.249c4.43-3.157,6.747-5.182,11.13-5.141c4.383-0.041,6.698,2.24,11.13,5.397l33.204,23.252
	c2.492,1.745,5.929,1.14,7.674-1.354C173.74,111.779,173.134,108.345,170.641,106.599"/>
<path fill="#BCBCBC" d="M157.84,91.574V77.227c0-2.535-2.056-4.591-4.591-4.591h-3.673c-2.536,0-4.592,2.056-4.592,4.591v5.347
	L157.84,91.574z"/>
<path fill="#EAEAEA" d="M171.561,107.518l-33.604-23.53c-5.687-4.204-10.192-7.877-17.052-7.906
	c-6.859,0.028-11.366,3.446-17.053,7.65l-33.604,23.529c-2.493,1.745-3.099,5.179-1.353,7.672c1.745,2.492,5.181,3.101,7.674,1.353
	l33.206-23.25c4.43-3.157,6.747-5.181,11.128-5.141c4.384-0.04,6.699,2.241,11.131,5.397l33.203,23.251
	c2.494,1.746,5.93,1.14,7.675-1.354C174.658,112.697,174.052,109.263,171.561,107.518"/>
<path fill="#EAEAEA" d="M158.758,92.493V78.146c0-2.536-2.055-4.591-4.591-4.591h-3.673c-2.536,0-4.592,2.055-4.592,4.591v5.347
	L158.758,92.493z"/>
</svg>
