<?xml version="1.0" encoding="utf-8"?> <!-- Generator: IcoMoon.io --> <!DOCTYPE svg PUBLIC "-//W3C//DTD SVG 1.1//EN" "http://www.w3.org/Graphics/SVG/1.1/DTD/svg11.dtd"> <svg width="416" height="448" viewBox="0 0 416 448" data-du="" data-tags="zoom-in, magnifier, enlarge" style="margin-left: 9px; margin-top: 9px;" xmlns="http://www.w3.org/2000/svg" xmlns:xlink="http://www.w3.org/1999/xlink"><g><line x1="32" x2="32" y1="0" y2="448" stroke="#B35047"></line><line x1="64" x2="64" y1="0" y2="448" stroke="#B35047"></line><line x1="96" x2="96" y1="0" y2="448" stroke="#B35047"></line><line x1="128" x2="128" y1="0" y2="448" stroke="#B35047"></line><line x1="160" x2="160" y1="0" y2="448" stroke="#B35047"></line><line x1="192" x2="192" y1="0" y2="448" stroke="#B35047"></line><line x1="224" x2="224" y1="0" y2="448" stroke="#B35047"></line><line x1="256" x2="256" y1="0" y2="448" stroke="#B35047"></line><line x1="288" x2="288" y1="0" y2="448" stroke="#B35047"></line><line x1="320" x2="320" y1="0" y2="448" stroke="#B35047"></line><line x1="352" x2="352" y1="0" y2="448" stroke="#B35047"></line><line x1="384" x2="384" y1="0" y2="448" stroke="#B35047"></line><line x1="0" x2="416" y1="32" y2="32" stroke="#B35047"></line><line x1="0" x2="416" y1="64" y2="64" stroke="#B35047"></line><line x1="0" x2="416" y1="96" y2="96" stroke="#B35047"></line><line x1="0" x2="416" y1="128" y2="128" stroke="#B35047"></line><line x1="0" x2="416" y1="160" y2="160" stroke="#B35047"></line><line x1="0" x2="416" y1="192" y2="192" stroke="#B35047"></line><line x1="0" x2="416" y1="224" y2="224" stroke="#B35047"></line><line x1="0" x2="416" y1="256" y2="256" stroke="#B35047"></line><line x1="0" x2="416" y1="288" y2="288" stroke="#B35047"></line><line x1="0" x2="416" y1="320" y2="320" stroke="#B35047"></line><line x1="0" x2="416" y1="352" y2="352" stroke="#B35047"></line><line x1="0" x2="416" y1="384" y2="384" stroke="#B35047"></line><line x1="0" x2="416" y1="416" y2="416" stroke="#B35047"></line><rect x="0" y="0" width="416" height="448" fill="none" stroke="#B35047"></rect></g><path d="M 256.00,200.00l0.00,16.00 q0.00,3.25 -2.375,5.625t-5.625,2.375l-56.00,0.00 l0.00,56.00 q0.00,3.25 -2.375,5.625t-5.625,2.375l-16.00,0.00 q-3.25,0.00 -5.625-2.375t-2.375-5.625l0.00-56.00 l-56.00,0.00 q-3.25,0.00 -5.625-2.375t-2.375-5.625l0.00-16.00 q0.00-3.25 2.375-5.625t 5.625-2.375l 56.00,0.00 l0.00-56.00 q0.00-3.25 2.375-5.625t 5.625-2.375l 16.00,0.00 q 3.25,0.00 5.625,2.375t 2.375,5.625l0.00,56.00 l 56.00,0.00 q 3.25,0.00 5.625,2.375t 2.375,5.625zM 288.00,208.00q0.00-46.25 -32.875-79.125t-79.125-32.875t-79.125,32.875t-32.875,79.125t 32.875,79.125t 79.125,32.875t 79.125-32.875t 32.875-79.125zM 416.00,416.00q0.00,13.25 -9.375,22.625t-22.625,9.375q-13.50,0.00 -22.50-9.50l-85.75-85.50q-44.75,31.00 -99.75,31.00q-35.75,0.00 -68.375-13.875 t-56.25-37.50t-37.50-56.25t-13.875-68.375t 13.875-68.375t 37.50-56.25t 56.25-37.50t 68.375-13.875t 68.375,13.875t 56.25,37.50t 37.50,56.25t 13.875,68.375q0.00,55.00 -31.00,99.75l 85.75,85.75q 9.25,9.25 9.25,22.50z" ></path></svg>